<?xml version="1.0" encoding="iso-8859-1"?>
<!-- Generator: Adobe Illustrator 23.0.2, SVG Export Plug-In . SVG Version: 6.00 Build 0)  -->
<svg version="1.1" baseProfile="tiny" id="Layer_2" xmlns="http://www.w3.org/2000/svg" xmlns:xlink="http://www.w3.org/1999/xlink"
	 x="0px" y="0px" viewBox="0 0 1024 1024" xml:space="preserve">
<circle fill="#9C1A83" stroke="#FFFFFF" stroke-width="24" stroke-miterlimit="10" cx="513.59" cy="511.13" r="494.59"/>
<path fill="#FFFFFF" stroke="#9C1A83" stroke-width="12" stroke-miterlimit="10" d="M347.12,831.39c0,0-55.93-1.75-58.55,53.3
	s55.05,70.78,86.51,70.78s92.63-9.61,131.08-92.63c38.45-83.02,47.19-227.2,47.19-227.2s5.24-80.39,6.12-134.57
	s3.5-110.11,6.12-173.9c2.62-63.79,9.61-126.71,15.73-149.43s14.86-60.3,34.08-60.3c19.22,0,1.74,72.53,62.92,72.53
	c2.62,0,54.18,10.49,59.42-51.56s-61.17-69.91-83.02-69.91s-89.13-2.62-134.57,97c0,0-27.39,74.6-38.45,167.78
	c-6.12,51.56-11.44,143.62-13.11,184.38c-1.75,42.82-1.24,77.03-2.62,117.1c-1.75,50.68-6.12,130.2-14.86,182.63
	c-8.94,53.62-22.31,87.39-37.58,87.39c-25.34,0,2.62-69.03-61.17-73.4H347.12z"/>
<path fill="#FFFFFF" d="M683.13,602.15l2.37,9.68c0,0,7.1-4.4,23.66-4.4c16.56,0,16.56,10.55,16.56,10.55s0,8.8-2.37,14.95
	s-30.76,126.66-30.76,126.66s-11.83,45.74,47.32,45.74c59.15,0,70.98-41.34,78.08-57.17h-10.65c0,0-14.27,31.13-39.04,32.54
	c-15.38,0.88-20.11-7.92-20.11-21.99c0-14.07,44.96-184.71,44.96-184.71h-13.01L683.13,602.15z"/>
<circle fill="#FFFFFF" cx="742.19" cy="507" r="30"/>
<polygon fill="#FFFFFF" points="83,467 149.12,412.82 267.62,643.32 333.91,343.22 951,343.22 951,403.28 351.76,401.66 
	262.75,825.13 90.68,482.62 "/>
</svg>
